<svg width="18" height="20" viewBox="0 0 18 20" fill="none" xmlns="http://www.w3.org/2000/svg">
<path d="M17.4289 13.0781C16.3352 12.043 15.5 10.9539 15.5 7.26172C15.5 4.15117 13.0242 1.61719 9.87501 1.30859V0.625C9.87423 0.27832 9.59689 0 9.24923 0C8.90157 0 8.62423 0.27832 8.62423 0.625V1.30859C5.4758 1.61641 2.96408 4.15234 2.96408 7.26172C2.96408 10.9531 2.12893 12.043 1.03518 13.0781C0.488308 13.6008 0.317214 14.3867 0.595729 15.0801C0.914088 15.793 1.59768 16.25 2.37385 16.25H16.1238C16.9004 16.25 17.584 15.791 17.8672 15.1133C18.1477 14.3867 17.9758 13.5977 17.4289 13.0781ZM16.1242 15H2.37385C1.81721 15 1.5387 14.3555 1.92932 14.0195C3.29182 12.7207 4.24885 11.2703 4.24885 7.29688C4.21408 4.62891 6.48361 2.5 9.24923 2.5C12.0149 2.5 14.2492 4.62891 14.2492 7.26172C14.2492 11.2227 15.1965 12.6836 16.5688 13.9844C16.9602 14.3594 16.675 15 16.1242 15ZM11.1281 17.5C10.8376 17.5 10.5672 17.662 10.468 17.925C10.2883 18.4062 9.80782 18.75 9.21407 18.75C8.62033 18.75 8.17462 18.4053 7.99337 17.925C7.92892 17.6602 7.65939 17.5 7.36642 17.5C6.95197 17.5 6.64884 17.8905 6.77736 18.2703C7.11642 19.2734 8.09689 20 9.21407 20C10.3652 20 11.3453 19.2723 11.6836 18.2703C11.8469 17.8555 11.5461 17.5 11.1281 17.5Z" fill="#3E3F48"/>
</svg>
