<svg width="10" height="12" viewBox="0 0 10 12" fill="none" xmlns="http://www.w3.org/2000/svg">
<path d="M0.135575 4.35612L4.71891 0.189453C4.79964 0.116537 4.8986 0.0800777 5.00016 0.0800777C5.10172 0.0800777 5.20117 0.115885 5.28063 0.188307L9.86396 4.35497C10.0339 4.50977 10.0465 4.77279 9.89193 4.94206C9.7369 5.11378 9.47292 5.12435 9.30313 4.97055L5.41682 1.43945L5.41682 10.9134C5.41682 11.1437 5.23047 11.3066 5.02359 11.3066C4.81672 11.3066 4.58349 11.1436 4.58349 10.9134L4.58349 1.43945L0.698074 4.97331C0.528387 5.12711 0.264221 5.11654 0.109273 4.94482C-0.0467171 4.77279 -0.0336956 4.50977 0.135575 4.35612Z" fill="#3E3F48"/>
</svg>
